<?xml version="1.0" standalone="no"?>
<!DOCTYPE svg PUBLIC "-//W3C//DTD SVG 1.1//EN" "http://www.w3.org/Graphics/SVG/1.1/DTD/svg11.dtd">
<svg xmlns="http://www.w3.org/2000/svg" width="194" height="60" viewBox="0 0 194 60" fill="none">
<g filter="url(#filter0_d_6_231)">
<mask id="path-1-inside-1_6_231" fill="white">
<path d="M82.192 41.048C81.856 41.048 81.624 40.664 81.496 39.896C81.384 39.112 81.288 37.736 81.208 35.768L81.136 34.016C81.104 33.408 80.992 32.472 80.8 31.208C80.784 31.048 80.72 30.56 80.608 29.744C80.496 28.928 80.44 28.208 80.44 27.584C80.44 27.488 80.488 27.368 80.584 27.224C80.68 27.064 80.8 26.984 80.944 26.984C81.152 26.984 81.288 27.08 81.352 27.272C81.432 27.464 81.48 27.656 81.496 27.848C81.528 28.024 81.544 28.136 81.544 28.184C81.64 28.456 81.712 28.832 81.76 29.312C81.808 29.776 81.848 30.272 81.88 30.8C81.944 31.84 82.008 32.584 82.072 33.032L82.816 31.976C83.856 30.44 84.792 29.208 85.624 28.28C86.472 27.352 87.296 26.904 88.096 26.936C88.16 27 88.192 27.08 88.192 27.176C88.192 27.336 88.112 27.52 87.952 27.728C87.792 27.936 87.552 28.208 87.232 28.544L86.728 29.072C86.552 29.28 86.016 29.872 85.12 30.848C84.496 31.504 83.984 32.064 83.584 32.528C83.184 32.992 82.88 33.416 82.672 33.8C83.376 34.776 84.208 35.64 85.168 36.392C86.144 37.144 87.416 38.032 88.984 39.056L89.704 39.512C89.992 39.624 90.216 39.776 90.376 39.968C90.552 40.144 90.64 40.328 90.64 40.52C90.64 40.616 90.616 40.712 90.568 40.808C90.456 41 90.32 41.096 90.16 41.096C89.984 41.096 89.672 40.984 89.224 40.76L87.928 39.848C86.52 38.92 85.32 38.056 84.328 37.256C83.336 36.456 82.648 35.696 82.264 34.976L82.408 36.776C82.552 38.424 82.624 39.528 82.624 40.088C82.624 40.488 82.592 40.752 82.528 40.88C82.464 40.992 82.352 41.048 82.192 41.048Z"/>
<path d="M94.6324 41C94.4244 41.08 94.2244 41.032 94.0324 40.856C93.8564 40.68 93.7604 40.432 93.7444 40.112C93.6804 39.648 93.6084 39.08 93.5284 38.408C93.4644 37.736 93.4164 37.24 93.3844 36.92C93.3524 36.6 93.2804 35.984 93.1684 35.072C93.0724 34.144 92.9684 33.344 92.8564 32.672C92.8244 32.448 92.7204 32.048 92.5444 31.472C92.0804 29.824 91.8484 28.632 91.8484 27.896C91.9604 27.736 92.0724 27.656 92.1844 27.656C92.6004 27.656 93.0324 28.488 93.4804 30.152C93.9284 31.816 94.3044 33.696 94.6084 35.792C94.9284 37.872 95.0884 39.296 95.0884 40.064C95.0884 40.096 95.0884 40.2 95.0884 40.376C95.0884 40.536 95.0484 40.672 94.9684 40.784C94.9044 40.896 94.7924 40.968 94.6324 41Z"/>
<path d="M108.513 31.112C108.513 31.8 108.545 32.472 108.609 33.128C108.689 33.768 108.809 34.672 108.969 35.84C109.273 37.808 109.425 39.376 109.425 40.544C109.425 40.784 109.377 40.928 109.281 40.976C109.185 41.024 109.073 41.048 108.945 41.048C108.817 41.048 108.729 41.048 108.681 41.048C108.457 41.048 108.281 41.024 108.153 40.976C108.025 40.912 107.921 40.768 107.841 40.544L107.337 34.016C107.289 33.36 107.225 32.04 107.145 30.056C106.457 30.856 105.777 31.464 105.105 31.88C104.433 32.28 103.745 32.48 103.041 32.48C102.033 32.48 101.025 31.768 100.017 30.344C100.065 30.584 100.089 30.904 100.089 31.304C100.089 31.704 100.089 31.936 100.089 32L100.065 39.848C100.065 40.008 99.9769 40.136 99.8009 40.232C99.6409 40.312 99.4729 40.352 99.2969 40.352C99.0729 40.352 98.9129 40.272 98.8169 40.112C98.7369 39.936 98.6729 39.704 98.6249 39.416V36.056C98.6249 35.544 98.6409 34.968 98.6729 34.328C98.7049 33.688 98.7289 33.24 98.7449 32.984C98.8249 31.864 98.8649 30.848 98.8649 29.936C98.8649 29.664 98.8169 29.408 98.7209 29.168C98.6249 28.912 98.4809 28.632 98.2889 28.328C98.0969 28.024 97.9529 27.76 97.8569 27.536C97.7769 27.312 97.7369 27.072 97.7369 26.816C97.7369 26.512 97.8889 26.36 98.1929 26.36C98.6729 26.36 99.0649 26.536 99.3689 26.888C99.6729 27.224 100.001 27.736 100.353 28.424C100.657 28.984 100.921 29.424 101.145 29.744C101.369 30.064 101.657 30.344 102.009 30.584C102.361 30.808 102.785 30.92 103.281 30.92C104.001 30.952 104.593 30.816 105.057 30.512C105.521 30.192 105.873 29.808 106.113 29.36C106.353 28.912 106.585 28.368 106.809 27.728C107.001 27.2 107.169 26.832 107.313 26.624C107.457 26.4 107.633 26.312 107.841 26.36C108.321 26.328 108.561 26.768 108.561 27.68C108.561 28.448 108.553 29.016 108.537 29.384L108.513 31.112Z"/>
<path d="M121.651 41.024C118.595 41.024 116.227 40.856 114.547 40.52C114.115 32.504 113.723 27.656 113.371 25.976L112.651 26.144C112.267 26.224 111.899 26.312 111.547 26.408C111.195 26.488 110.819 26.608 110.419 26.768L110.395 25.952C110.395 25.68 110.691 25.432 111.283 25.208C111.875 24.968 112.587 24.784 113.419 24.656C114.267 24.512 115.019 24.44 115.675 24.44C116.395 24.44 117.219 24.568 118.147 24.824C119.091 25.08 119.899 25.464 120.571 25.976C121.243 26.472 121.579 27.064 121.579 27.752C121.579 28.536 121.275 29.232 120.667 29.84C120.075 30.432 119.299 30.856 118.339 31.112C119.747 31.352 121.059 31.784 122.275 32.408C123.491 33.016 124.467 33.776 125.203 34.688C125.939 35.584 126.307 36.552 126.307 37.592C126.307 38.792 125.843 39.664 124.915 40.208C123.987 40.752 122.899 41.024 121.651 41.024ZM121.027 39.656C122.211 39.656 123.123 39.528 123.763 39.272C124.403 39 124.723 38.424 124.723 37.544C124.723 36.616 124.443 35.84 123.883 35.216C123.339 34.576 122.691 34.08 121.939 33.728C121.203 33.36 120.283 32.976 119.179 32.576C118.299 32.272 117.643 32.008 117.211 31.784C116.795 31.544 116.587 31.28 116.587 30.992C116.587 30.784 116.691 30.624 116.899 30.512C117.107 30.4 117.475 30.24 118.003 30.032C118.723 29.792 119.283 29.536 119.683 29.264C120.099 28.976 120.307 28.576 120.307 28.064C120.307 27.312 119.851 26.736 118.939 26.336C118.027 25.92 117.003 25.712 115.867 25.712C115.547 25.712 115.163 25.744 114.715 25.808C115.131 28.496 115.419 30.76 115.579 32.6C115.739 34.424 115.851 36.544 115.915 38.96C116.139 39.184 116.707 39.352 117.619 39.464C118.531 39.576 119.667 39.64 121.027 39.656Z"/>
<path d="M135.135 41.024C133.807 41.024 132.615 40.752 131.559 40.208C130.519 39.664 129.703 38.896 129.111 37.904C128.519 36.912 128.223 35.768 128.223 34.472C128.223 33.592 128.399 32.784 128.751 32.048C129.103 31.312 129.615 30.728 130.287 30.296C130.959 29.848 131.751 29.624 132.663 29.624C134.391 29.624 135.927 29.92 137.271 30.512C138.631 31.088 139.687 31.92 140.439 33.008C141.207 34.096 141.591 35.352 141.591 36.776C141.591 37.72 141.239 38.512 140.535 39.152C139.847 39.792 138.999 40.264 137.991 40.568C136.999 40.872 136.047 41.024 135.135 41.024ZM134.679 39.776C136.279 39.776 137.623 39.536 138.711 39.056C139.815 38.576 140.367 37.776 140.367 36.656C140.367 34.704 139.615 33.24 138.111 32.264C136.607 31.272 134.687 30.776 132.351 30.776C131.231 30.776 130.439 31.112 129.975 31.784C129.527 32.44 129.303 33.336 129.303 34.472C129.303 35.416 129.527 36.296 129.975 37.112C130.439 37.912 131.079 38.56 131.895 39.056C132.711 39.536 133.639 39.776 134.679 39.776Z"/>
<path d="M151.581 40.088C152.893 40.088 153.909 39.904 154.629 39.536C155.349 39.168 155.709 38.632 155.709 37.928C155.709 37.304 155.493 36.768 155.061 36.32C154.629 35.856 154.093 35.464 153.453 35.144C152.813 34.824 151.941 34.448 150.837 34.016C150.741 33.984 150.509 33.896 150.141 33.752C148.637 33.144 147.477 32.536 146.661 31.928C145.861 31.32 145.461 30.536 145.461 29.576C145.461 28.504 145.885 27.696 146.733 27.152C147.581 26.608 148.669 26.336 149.997 26.336C150.973 26.336 151.869 26.464 152.685 26.72C153.517 26.96 154.173 27.296 154.653 27.728C155.149 28.16 155.397 28.648 155.397 29.192C155.205 29.288 155.021 29.336 154.845 29.336C154.653 29.336 154.453 29.296 154.245 29.216C154.053 29.12 153.765 28.968 153.381 28.76C152.757 28.424 152.173 28.16 151.629 27.968C151.085 27.76 150.445 27.656 149.709 27.656C148.781 27.656 148.029 27.816 147.453 28.136C146.877 28.456 146.589 28.904 146.589 29.48C146.589 29.928 146.781 30.336 147.165 30.704C147.565 31.072 148.061 31.4 148.653 31.688C149.261 31.96 150.069 32.288 151.077 32.672C152.357 33.168 153.413 33.632 154.245 34.064C155.077 34.496 155.781 35.048 156.357 35.72C156.949 36.376 157.245 37.16 157.245 38.072C157.245 39.144 156.733 39.976 155.709 40.568C154.685 41.144 153.413 41.432 151.893 41.432C150.693 41.432 149.509 41.256 148.341 40.904C147.173 40.552 146.173 40.032 145.341 39.344C144.509 38.64 143.981 37.8 143.757 36.824C143.757 36.392 143.877 36.024 144.117 35.72C144.357 35.4 144.653 35.24 145.005 35.24C145.005 36.28 145.293 37.168 145.869 37.904C146.461 38.624 147.253 39.168 148.245 39.536C149.253 39.904 150.365 40.088 151.581 40.088Z"/>
<path d="M170.435 41.024C170.243 41.024 170.107 40.976 170.027 40.88C169.963 40.784 169.931 40.648 169.931 40.472C169.931 40.12 170.011 39.576 170.171 38.84C170.347 38.168 170.435 37.616 170.435 37.184C170.435 35.936 170.339 34.984 170.147 34.328H169.403C168.747 34.328 167.891 34.312 166.835 34.28L164.579 34.256H161.339L161.387 35.192C161.387 35.928 161.507 36.848 161.747 37.952C161.827 38.4 161.899 38.856 161.963 39.32C162.043 39.768 162.083 40.176 162.083 40.544V40.76C161.923 40.92 161.755 41 161.579 41C161.163 41 160.835 40.512 160.595 39.536C160.355 38.544 160.235 37.352 160.235 35.96C160.235 35.4 160.259 34.848 160.307 34.304C159.955 34.288 159.715 34.232 159.587 34.136C159.459 34.024 159.395 33.856 159.395 33.632C159.395 33.456 159.443 33.336 159.539 33.272C159.651 33.208 159.843 33.16 160.115 33.128L160.091 32.48L160.163 31.376C160.275 29.568 160.443 28.096 160.667 26.96C160.891 25.824 161.371 24.84 162.107 24.008C162.843 23.176 163.947 22.76 165.419 22.76C167.099 22.76 168.411 23.664 169.355 25.472C170.299 27.28 170.939 29.296 171.275 31.52C171.611 33.744 171.779 35.656 171.779 37.256C171.779 37.832 171.763 38.336 171.731 38.768C171.699 39.184 171.635 39.704 171.539 40.328C171.171 40.792 170.803 41.024 170.435 41.024ZM170.051 33.392C169.747 30.432 169.203 28.112 168.419 26.432C167.635 24.736 166.459 23.888 164.891 23.888C163.723 23.888 162.859 24.432 162.299 25.52C161.755 26.592 161.427 27.744 161.315 28.976C161.203 30.208 161.147 31.592 161.147 33.128L170.051 33.392Z"/>
</mask>
<path d="M82.192 41.048C81.856 41.048 81.624 40.664 81.496 39.896C81.384 39.112 81.288 37.736 81.208 35.768L81.136 34.016C81.104 33.408 80.992 32.472 80.8 31.208C80.784 31.048 80.72 30.56 80.608 29.744C80.496 28.928 80.44 28.208 80.44 27.584C80.44 27.488 80.488 27.368 80.584 27.224C80.68 27.064 80.8 26.984 80.944 26.984C81.152 26.984 81.288 27.08 81.352 27.272C81.432 27.464 81.48 27.656 81.496 27.848C81.528 28.024 81.544 28.136 81.544 28.184C81.64 28.456 81.712 28.832 81.76 29.312C81.808 29.776 81.848 30.272 81.88 30.8C81.944 31.84 82.008 32.584 82.072 33.032L82.816 31.976C83.856 30.44 84.792 29.208 85.624 28.28C86.472 27.352 87.296 26.904 88.096 26.936C88.16 27 88.192 27.08 88.192 27.176C88.192 27.336 88.112 27.52 87.952 27.728C87.792 27.936 87.552 28.208 87.232 28.544L86.728 29.072C86.552 29.28 86.016 29.872 85.12 30.848C84.496 31.504 83.984 32.064 83.584 32.528C83.184 32.992 82.88 33.416 82.672 33.8C83.376 34.776 84.208 35.64 85.168 36.392C86.144 37.144 87.416 38.032 88.984 39.056L89.704 39.512C89.992 39.624 90.216 39.776 90.376 39.968C90.552 40.144 90.64 40.328 90.64 40.52C90.64 40.616 90.616 40.712 90.568 40.808C90.456 41 90.32 41.096 90.16 41.096C89.984 41.096 89.672 40.984 89.224 40.76L87.928 39.848C86.52 38.92 85.32 38.056 84.328 37.256C83.336 36.456 82.648 35.696 82.264 34.976L82.408 36.776C82.552 38.424 82.624 39.528 82.624 40.088C82.624 40.488 82.592 40.752 82.528 40.88C82.464 40.992 82.352 41.048 82.192 41.048Z" fill="black"/>
<path d="M94.6324 41C94.4244 41.08 94.2244 41.032 94.0324 40.856C93.8564 40.68 93.7604 40.432 93.7444 40.112C93.6804 39.648 93.6084 39.08 93.5284 38.408C93.4644 37.736 93.4164 37.24 93.3844 36.92C93.3524 36.6 93.2804 35.984 93.1684 35.072C93.0724 34.144 92.9684 33.344 92.8564 32.672C92.8244 32.448 92.7204 32.048 92.5444 31.472C92.0804 29.824 91.8484 28.632 91.8484 27.896C91.9604 27.736 92.0724 27.656 92.1844 27.656C92.6004 27.656 93.0324 28.488 93.4804 30.152C93.9284 31.816 94.3044 33.696 94.6084 35.792C94.9284 37.872 95.0884 39.296 95.0884 40.064C95.0884 40.096 95.0884 40.2 95.0884 40.376C95.0884 40.536 95.0484 40.672 94.9684 40.784C94.9044 40.896 94.7924 40.968 94.6324 41Z" fill="black"/>
<path d="M108.513 31.112C108.513 31.8 108.545 32.472 108.609 33.128C108.689 33.768 108.809 34.672 108.969 35.84C109.273 37.808 109.425 39.376 109.425 40.544C109.425 40.784 109.377 40.928 109.281 40.976C109.185 41.024 109.073 41.048 108.945 41.048C108.817 41.048 108.729 41.048 108.681 41.048C108.457 41.048 108.281 41.024 108.153 40.976C108.025 40.912 107.921 40.768 107.841 40.544L107.337 34.016C107.289 33.36 107.225 32.04 107.145 30.056C106.457 30.856 105.777 31.464 105.105 31.88C104.433 32.28 103.745 32.48 103.041 32.48C102.033 32.48 101.025 31.768 100.017 30.344C100.065 30.584 100.089 30.904 100.089 31.304C100.089 31.704 100.089 31.936 100.089 32L100.065 39.848C100.065 40.008 99.9769 40.136 99.8009 40.232C99.6409 40.312 99.4729 40.352 99.2969 40.352C99.0729 40.352 98.9129 40.272 98.8169 40.112C98.7369 39.936 98.6729 39.704 98.6249 39.416V36.056C98.6249 35.544 98.6409 34.968 98.6729 34.328C98.7049 33.688 98.7289 33.24 98.7449 32.984C98.8249 31.864 98.8649 30.848 98.8649 29.936C98.8649 29.664 98.8169 29.408 98.7209 29.168C98.6249 28.912 98.4809 28.632 98.2889 28.328C98.0969 28.024 97.9529 27.76 97.8569 27.536C97.7769 27.312 97.7369 27.072 97.7369 26.816C97.7369 26.512 97.8889 26.36 98.1929 26.36C98.6729 26.36 99.0649 26.536 99.3689 26.888C99.6729 27.224 100.001 27.736 100.353 28.424C100.657 28.984 100.921 29.424 101.145 29.744C101.369 30.064 101.657 30.344 102.009 30.584C102.361 30.808 102.785 30.92 103.281 30.92C104.001 30.952 104.593 30.816 105.057 30.512C105.521 30.192 105.873 29.808 106.113 29.36C106.353 28.912 106.585 28.368 106.809 27.728C107.001 27.2 107.169 26.832 107.313 26.624C107.457 26.4 107.633 26.312 107.841 26.36C108.321 26.328 108.561 26.768 108.561 27.68C108.561 28.448 108.553 29.016 108.537 29.384L108.513 31.112Z" fill="black"/>
<path d="M121.651 41.024C118.595 41.024 116.227 40.856 114.547 40.52C114.115 32.504 113.723 27.656 113.371 25.976L112.651 26.144C112.267 26.224 111.899 26.312 111.547 26.408C111.195 26.488 110.819 26.608 110.419 26.768L110.395 25.952C110.395 25.68 110.691 25.432 111.283 25.208C111.875 24.968 112.587 24.784 113.419 24.656C114.267 24.512 115.019 24.44 115.675 24.44C116.395 24.44 117.219 24.568 118.147 24.824C119.091 25.08 119.899 25.464 120.571 25.976C121.243 26.472 121.579 27.064 121.579 27.752C121.579 28.536 121.275 29.232 120.667 29.84C120.075 30.432 119.299 30.856 118.339 31.112C119.747 31.352 121.059 31.784 122.275 32.408C123.491 33.016 124.467 33.776 125.203 34.688C125.939 35.584 126.307 36.552 126.307 37.592C126.307 38.792 125.843 39.664 124.915 40.208C123.987 40.752 122.899 41.024 121.651 41.024ZM121.027 39.656C122.211 39.656 123.123 39.528 123.763 39.272C124.403 39 124.723 38.424 124.723 37.544C124.723 36.616 124.443 35.84 123.883 35.216C123.339 34.576 122.691 34.08 121.939 33.728C121.203 33.36 120.283 32.976 119.179 32.576C118.299 32.272 117.643 32.008 117.211 31.784C116.795 31.544 116.587 31.28 116.587 30.992C116.587 30.784 116.691 30.624 116.899 30.512C117.107 30.4 117.475 30.24 118.003 30.032C118.723 29.792 119.283 29.536 119.683 29.264C120.099 28.976 120.307 28.576 120.307 28.064C120.307 27.312 119.851 26.736 118.939 26.336C118.027 25.92 117.003 25.712 115.867 25.712C115.547 25.712 115.163 25.744 114.715 25.808C115.131 28.496 115.419 30.76 115.579 32.6C115.739 34.424 115.851 36.544 115.915 38.96C116.139 39.184 116.707 39.352 117.619 39.464C118.531 39.576 119.667 39.64 121.027 39.656Z" fill="black"/>
<path d="M135.135 41.024C133.807 41.024 132.615 40.752 131.559 40.208C130.519 39.664 129.703 38.896 129.111 37.904C128.519 36.912 128.223 35.768 128.223 34.472C128.223 33.592 128.399 32.784 128.751 32.048C129.103 31.312 129.615 30.728 130.287 30.296C130.959 29.848 131.751 29.624 132.663 29.624C134.391 29.624 135.927 29.92 137.271 30.512C138.631 31.088 139.687 31.92 140.439 33.008C141.207 34.096 141.591 35.352 141.591 36.776C141.591 37.72 141.239 38.512 140.535 39.152C139.847 39.792 138.999 40.264 137.991 40.568C136.999 40.872 136.047 41.024 135.135 41.024ZM134.679 39.776C136.279 39.776 137.623 39.536 138.711 39.056C139.815 38.576 140.367 37.776 140.367 36.656C140.367 34.704 139.615 33.24 138.111 32.264C136.607 31.272 134.687 30.776 132.351 30.776C131.231 30.776 130.439 31.112 129.975 31.784C129.527 32.44 129.303 33.336 129.303 34.472C129.303 35.416 129.527 36.296 129.975 37.112C130.439 37.912 131.079 38.56 131.895 39.056C132.711 39.536 133.639 39.776 134.679 39.776Z" fill="black"/>
<path d="M151.581 40.088C152.893 40.088 153.909 39.904 154.629 39.536C155.349 39.168 155.709 38.632 155.709 37.928C155.709 37.304 155.493 36.768 155.061 36.32C154.629 35.856 154.093 35.464 153.453 35.144C152.813 34.824 151.941 34.448 150.837 34.016C150.741 33.984 150.509 33.896 150.141 33.752C148.637 33.144 147.477 32.536 146.661 31.928C145.861 31.32 145.461 30.536 145.461 29.576C145.461 28.504 145.885 27.696 146.733 27.152C147.581 26.608 148.669 26.336 149.997 26.336C150.973 26.336 151.869 26.464 152.685 26.72C153.517 26.96 154.173 27.296 154.653 27.728C155.149 28.16 155.397 28.648 155.397 29.192C155.205 29.288 155.021 29.336 154.845 29.336C154.653 29.336 154.453 29.296 154.245 29.216C154.053 29.12 153.765 28.968 153.381 28.76C152.757 28.424 152.173 28.16 151.629 27.968C151.085 27.76 150.445 27.656 149.709 27.656C148.781 27.656 148.029 27.816 147.453 28.136C146.877 28.456 146.589 28.904 146.589 29.48C146.589 29.928 146.781 30.336 147.165 30.704C147.565 31.072 148.061 31.4 148.653 31.688C149.261 31.96 150.069 32.288 151.077 32.672C152.357 33.168 153.413 33.632 154.245 34.064C155.077 34.496 155.781 35.048 156.357 35.72C156.949 36.376 157.245 37.16 157.245 38.072C157.245 39.144 156.733 39.976 155.709 40.568C154.685 41.144 153.413 41.432 151.893 41.432C150.693 41.432 149.509 41.256 148.341 40.904C147.173 40.552 146.173 40.032 145.341 39.344C144.509 38.64 143.981 37.8 143.757 36.824C143.757 36.392 143.877 36.024 144.117 35.72C144.357 35.4 144.653 35.24 145.005 35.24C145.005 36.28 145.293 37.168 145.869 37.904C146.461 38.624 147.253 39.168 148.245 39.536C149.253 39.904 150.365 40.088 151.581 40.088Z" fill="black"/>
<path d="M170.435 41.024C170.243 41.024 170.107 40.976 170.027 40.88C169.963 40.784 169.931 40.648 169.931 40.472C169.931 40.12 170.011 39.576 170.171 38.84C170.347 38.168 170.435 37.616 170.435 37.184C170.435 35.936 170.339 34.984 170.147 34.328H169.403C168.747 34.328 167.891 34.312 166.835 34.28L164.579 34.256H161.339L161.387 35.192C161.387 35.928 161.507 36.848 161.747 37.952C161.827 38.4 161.899 38.856 161.963 39.32C162.043 39.768 162.083 40.176 162.083 40.544V40.76C161.923 40.92 161.755 41 161.579 41C161.163 41 160.835 40.512 160.595 39.536C160.355 38.544 160.235 37.352 160.235 35.96C160.235 35.4 160.259 34.848 160.307 34.304C159.955 34.288 159.715 34.232 159.587 34.136C159.459 34.024 159.395 33.856 159.395 33.632C159.395 33.456 159.443 33.336 159.539 33.272C159.651 33.208 159.843 33.16 160.115 33.128L160.091 32.48L160.163 31.376C160.275 29.568 160.443 28.096 160.667 26.96C160.891 25.824 161.371 24.84 162.107 24.008C162.843 23.176 163.947 22.76 165.419 22.76C167.099 22.76 168.411 23.664 169.355 25.472C170.299 27.28 170.939 29.296 171.275 31.52C171.611 33.744 171.779 35.656 171.779 37.256C171.779 37.832 171.763 38.336 171.731 38.768C171.699 39.184 171.635 39.704 171.539 40.328C171.171 40.792 170.803 41.024 170.435 41.024ZM170.051 33.392C169.747 30.432 169.203 28.112 168.419 26.432C167.635 24.736 166.459 23.888 164.891 23.888C163.723 23.888 162.859 24.432 162.299 25.52C161.755 26.592 161.427 27.744 161.315 28.976C161.203 30.208 161.147 31.592 161.147 33.128L170.051 33.392Z" fill="black"/>
<path d="M82.192 41.048C81.856 41.048 81.624 40.664 81.496 39.896C81.384 39.112 81.288 37.736 81.208 35.768L81.136 34.016C81.104 33.408 80.992 32.472 80.8 31.208C80.784 31.048 80.72 30.56 80.608 29.744C80.496 28.928 80.44 28.208 80.44 27.584C80.44 27.488 80.488 27.368 80.584 27.224C80.68 27.064 80.8 26.984 80.944 26.984C81.152 26.984 81.288 27.08 81.352 27.272C81.432 27.464 81.48 27.656 81.496 27.848C81.528 28.024 81.544 28.136 81.544 28.184C81.64 28.456 81.712 28.832 81.76 29.312C81.808 29.776 81.848 30.272 81.88 30.8C81.944 31.84 82.008 32.584 82.072 33.032L82.816 31.976C83.856 30.44 84.792 29.208 85.624 28.28C86.472 27.352 87.296 26.904 88.096 26.936C88.16 27 88.192 27.08 88.192 27.176C88.192 27.336 88.112 27.52 87.952 27.728C87.792 27.936 87.552 28.208 87.232 28.544L86.728 29.072C86.552 29.28 86.016 29.872 85.12 30.848C84.496 31.504 83.984 32.064 83.584 32.528C83.184 32.992 82.88 33.416 82.672 33.8C83.376 34.776 84.208 35.64 85.168 36.392C86.144 37.144 87.416 38.032 88.984 39.056L89.704 39.512C89.992 39.624 90.216 39.776 90.376 39.968C90.552 40.144 90.64 40.328 90.64 40.52C90.64 40.616 90.616 40.712 90.568 40.808C90.456 41 90.32 41.096 90.16 41.096C89.984 41.096 89.672 40.984 89.224 40.76L87.928 39.848C86.52 38.92 85.32 38.056 84.328 37.256C83.336 36.456 82.648 35.696 82.264 34.976L82.408 36.776C82.552 38.424 82.624 39.528 82.624 40.088C82.624 40.488 82.592 40.752 82.528 40.88C82.464 40.992 82.352 41.048 82.192 41.048Z" stroke="black" stroke-width="234" mask="url(#path-1-inside-1_6_231)"/>
<path d="M94.6324 41C94.4244 41.08 94.2244 41.032 94.0324 40.856C93.8564 40.68 93.7604 40.432 93.7444 40.112C93.6804 39.648 93.6084 39.08 93.5284 38.408C93.4644 37.736 93.4164 37.24 93.3844 36.92C93.3524 36.6 93.2804 35.984 93.1684 35.072C93.0724 34.144 92.9684 33.344 92.8564 32.672C92.8244 32.448 92.7204 32.048 92.5444 31.472C92.0804 29.824 91.8484 28.632 91.8484 27.896C91.9604 27.736 92.0724 27.656 92.1844 27.656C92.6004 27.656 93.0324 28.488 93.4804 30.152C93.9284 31.816 94.3044 33.696 94.6084 35.792C94.9284 37.872 95.0884 39.296 95.0884 40.064C95.0884 40.096 95.0884 40.2 95.0884 40.376C95.0884 40.536 95.0484 40.672 94.9684 40.784C94.9044 40.896 94.7924 40.968 94.6324 41Z" stroke="black" stroke-width="234" mask="url(#path-1-inside-1_6_231)"/>
<path d="M108.513 31.112C108.513 31.8 108.545 32.472 108.609 33.128C108.689 33.768 108.809 34.672 108.969 35.84C109.273 37.808 109.425 39.376 109.425 40.544C109.425 40.784 109.377 40.928 109.281 40.976C109.185 41.024 109.073 41.048 108.945 41.048C108.817 41.048 108.729 41.048 108.681 41.048C108.457 41.048 108.281 41.024 108.153 40.976C108.025 40.912 107.921 40.768 107.841 40.544L107.337 34.016C107.289 33.36 107.225 32.04 107.145 30.056C106.457 30.856 105.777 31.464 105.105 31.88C104.433 32.28 103.745 32.48 103.041 32.48C102.033 32.48 101.025 31.768 100.017 30.344C100.065 30.584 100.089 30.904 100.089 31.304C100.089 31.704 100.089 31.936 100.089 32L100.065 39.848C100.065 40.008 99.9769 40.136 99.8009 40.232C99.6409 40.312 99.4729 40.352 99.2969 40.352C99.0729 40.352 98.9129 40.272 98.8169 40.112C98.7369 39.936 98.6729 39.704 98.6249 39.416V36.056C98.6249 35.544 98.6409 34.968 98.6729 34.328C98.7049 33.688 98.7289 33.24 98.7449 32.984C98.8249 31.864 98.8649 30.848 98.8649 29.936C98.8649 29.664 98.8169 29.408 98.7209 29.168C98.6249 28.912 98.4809 28.632 98.2889 28.328C98.0969 28.024 97.9529 27.76 97.8569 27.536C97.7769 27.312 97.7369 27.072 97.7369 26.816C97.7369 26.512 97.8889 26.36 98.1929 26.36C98.6729 26.36 99.0649 26.536 99.3689 26.888C99.6729 27.224 100.001 27.736 100.353 28.424C100.657 28.984 100.921 29.424 101.145 29.744C101.369 30.064 101.657 30.344 102.009 30.584C102.361 30.808 102.785 30.92 103.281 30.92C104.001 30.952 104.593 30.816 105.057 30.512C105.521 30.192 105.873 29.808 106.113 29.36C106.353 28.912 106.585 28.368 106.809 27.728C107.001 27.2 107.169 26.832 107.313 26.624C107.457 26.4 107.633 26.312 107.841 26.36C108.321 26.328 108.561 26.768 108.561 27.68C108.561 28.448 108.553 29.016 108.537 29.384L108.513 31.112Z" stroke="black" stroke-width="234" mask="url(#path-1-inside-1_6_231)"/>
<path d="M121.651 41.024C118.595 41.024 116.227 40.856 114.547 40.52C114.115 32.504 113.723 27.656 113.371 25.976L112.651 26.144C112.267 26.224 111.899 26.312 111.547 26.408C111.195 26.488 110.819 26.608 110.419 26.768L110.395 25.952C110.395 25.68 110.691 25.432 111.283 25.208C111.875 24.968 112.587 24.784 113.419 24.656C114.267 24.512 115.019 24.44 115.675 24.44C116.395 24.44 117.219 24.568 118.147 24.824C119.091 25.08 119.899 25.464 120.571 25.976C121.243 26.472 121.579 27.064 121.579 27.752C121.579 28.536 121.275 29.232 120.667 29.84C120.075 30.432 119.299 30.856 118.339 31.112C119.747 31.352 121.059 31.784 122.275 32.408C123.491 33.016 124.467 33.776 125.203 34.688C125.939 35.584 126.307 36.552 126.307 37.592C126.307 38.792 125.843 39.664 124.915 40.208C123.987 40.752 122.899 41.024 121.651 41.024ZM121.027 39.656C122.211 39.656 123.123 39.528 123.763 39.272C124.403 39 124.723 38.424 124.723 37.544C124.723 36.616 124.443 35.84 123.883 35.216C123.339 34.576 122.691 34.08 121.939 33.728C121.203 33.36 120.283 32.976 119.179 32.576C118.299 32.272 117.643 32.008 117.211 31.784C116.795 31.544 116.587 31.28 116.587 30.992C116.587 30.784 116.691 30.624 116.899 30.512C117.107 30.4 117.475 30.24 118.003 30.032C118.723 29.792 119.283 29.536 119.683 29.264C120.099 28.976 120.307 28.576 120.307 28.064C120.307 27.312 119.851 26.736 118.939 26.336C118.027 25.92 117.003 25.712 115.867 25.712C115.547 25.712 115.163 25.744 114.715 25.808C115.131 28.496 115.419 30.76 115.579 32.6C115.739 34.424 115.851 36.544 115.915 38.96C116.139 39.184 116.707 39.352 117.619 39.464C118.531 39.576 119.667 39.64 121.027 39.656Z" stroke="black" stroke-width="234" mask="url(#path-1-inside-1_6_231)"/>
<path d="M135.135 41.024C133.807 41.024 132.615 40.752 131.559 40.208C130.519 39.664 129.703 38.896 129.111 37.904C128.519 36.912 128.223 35.768 128.223 34.472C128.223 33.592 128.399 32.784 128.751 32.048C129.103 31.312 129.615 30.728 130.287 30.296C130.959 29.848 131.751 29.624 132.663 29.624C134.391 29.624 135.927 29.92 137.271 30.512C138.631 31.088 139.687 31.92 140.439 33.008C141.207 34.096 141.591 35.352 141.591 36.776C141.591 37.72 141.239 38.512 140.535 39.152C139.847 39.792 138.999 40.264 137.991 40.568C136.999 40.872 136.047 41.024 135.135 41.024ZM134.679 39.776C136.279 39.776 137.623 39.536 138.711 39.056C139.815 38.576 140.367 37.776 140.367 36.656C140.367 34.704 139.615 33.24 138.111 32.264C136.607 31.272 134.687 30.776 132.351 30.776C131.231 30.776 130.439 31.112 129.975 31.784C129.527 32.44 129.303 33.336 129.303 34.472C129.303 35.416 129.527 36.296 129.975 37.112C130.439 37.912 131.079 38.56 131.895 39.056C132.711 39.536 133.639 39.776 134.679 39.776Z" stroke="black" stroke-width="234" mask="url(#path-1-inside-1_6_231)"/>
<path d="M151.581 40.088C152.893 40.088 153.909 39.904 154.629 39.536C155.349 39.168 155.709 38.632 155.709 37.928C155.709 37.304 155.493 36.768 155.061 36.32C154.629 35.856 154.093 35.464 153.453 35.144C152.813 34.824 151.941 34.448 150.837 34.016C150.741 33.984 150.509 33.896 150.141 33.752C148.637 33.144 147.477 32.536 146.661 31.928C145.861 31.32 145.461 30.536 145.461 29.576C145.461 28.504 145.885 27.696 146.733 27.152C147.581 26.608 148.669 26.336 149.997 26.336C150.973 26.336 151.869 26.464 152.685 26.72C153.517 26.96 154.173 27.296 154.653 27.728C155.149 28.16 155.397 28.648 155.397 29.192C155.205 29.288 155.021 29.336 154.845 29.336C154.653 29.336 154.453 29.296 154.245 29.216C154.053 29.12 153.765 28.968 153.381 28.76C152.757 28.424 152.173 28.16 151.629 27.968C151.085 27.76 150.445 27.656 149.709 27.656C148.781 27.656 148.029 27.816 147.453 28.136C146.877 28.456 146.589 28.904 146.589 29.48C146.589 29.928 146.781 30.336 147.165 30.704C147.565 31.072 148.061 31.4 148.653 31.688C149.261 31.96 150.069 32.288 151.077 32.672C152.357 33.168 153.413 33.632 154.245 34.064C155.077 34.496 155.781 35.048 156.357 35.72C156.949 36.376 157.245 37.16 157.245 38.072C157.245 39.144 156.733 39.976 155.709 40.568C154.685 41.144 153.413 41.432 151.893 41.432C150.693 41.432 149.509 41.256 148.341 40.904C147.173 40.552 146.173 40.032 145.341 39.344C144.509 38.64 143.981 37.8 143.757 36.824C143.757 36.392 143.877 36.024 144.117 35.72C144.357 35.4 144.653 35.24 145.005 35.24C145.005 36.28 145.293 37.168 145.869 37.904C146.461 38.624 147.253 39.168 148.245 39.536C149.253 39.904 150.365 40.088 151.581 40.088Z" stroke="black" stroke-width="234" mask="url(#path-1-inside-1_6_231)"/>
<path d="M170.435 41.024C170.243 41.024 170.107 40.976 170.027 40.88C169.963 40.784 169.931 40.648 169.931 40.472C169.931 40.12 170.011 39.576 170.171 38.84C170.347 38.168 170.435 37.616 170.435 37.184C170.435 35.936 170.339 34.984 170.147 34.328H169.403C168.747 34.328 167.891 34.312 166.835 34.28L164.579 34.256H161.339L161.387 35.192C161.387 35.928 161.507 36.848 161.747 37.952C161.827 38.4 161.899 38.856 161.963 39.32C162.043 39.768 162.083 40.176 162.083 40.544V40.76C161.923 40.92 161.755 41 161.579 41C161.163 41 160.835 40.512 160.595 39.536C160.355 38.544 160.235 37.352 160.235 35.96C160.235 35.4 160.259 34.848 160.307 34.304C159.955 34.288 159.715 34.232 159.587 34.136C159.459 34.024 159.395 33.856 159.395 33.632C159.395 33.456 159.443 33.336 159.539 33.272C159.651 33.208 159.843 33.16 160.115 33.128L160.091 32.48L160.163 31.376C160.275 29.568 160.443 28.096 160.667 26.96C160.891 25.824 161.371 24.84 162.107 24.008C162.843 23.176 163.947 22.76 165.419 22.76C167.099 22.76 168.411 23.664 169.355 25.472C170.299 27.28 170.939 29.296 171.275 31.52C171.611 33.744 171.779 35.656 171.779 37.256C171.779 37.832 171.763 38.336 171.731 38.768C171.699 39.184 171.635 39.704 171.539 40.328C171.171 40.792 170.803 41.024 170.435 41.024ZM170.051 33.392C169.747 30.432 169.203 28.112 168.419 26.432C167.635 24.736 166.459 23.888 164.891 23.888C163.723 23.888 162.859 24.432 162.299 25.52C161.755 26.592 161.427 27.744 161.315 28.976C161.203 30.208 161.147 31.592 161.147 33.128L170.051 33.392Z" stroke="black" stroke-width="234" mask="url(#path-1-inside-1_6_231)"/>
</g>
<path fill-rule="evenodd" clip-rule="evenodd" d="M70.5185 28.3443L54.0595 23.1367L31.4299 30.2917L47.8969 35.4996L70.5185 28.3443Z" fill="white"/>
<path fill-rule="evenodd" clip-rule="evenodd" d="M70.5185 39.517V28.3443L47.8969 35.4996L47.8969 46.6721L70.5185 39.517Z" fill="white"/>
<path fill-rule="evenodd" clip-rule="evenodd" d="M47.8969 35.4996L31.4299 30.2917V41.4647L47.8969 46.6721L47.8969 35.4996Z" fill="white"/>
<path fill-rule="evenodd" clip-rule="evenodd" d="M31.4435 30.3128L25 25.9523L47.6359 18.7759L54.0603 23.1537L31.445 30.3128H31.4435Z" fill="white"/>
<path fill-rule="evenodd" clip-rule="evenodd" d="M54.0262 23.141L59.0245 16.875L75.4042 22.0614L70.4185 28.3232L54.0262 23.141Z" fill="white"/>
<path fill-rule="evenodd" clip-rule="evenodd" d="M27.9641 25.8972L31.4101 30.3259L47.7898 35.5076L44.3571 31.0797L27.9641 25.8972Z" fill="white"/>
<path fill-rule="evenodd" clip-rule="evenodd" d="M47.9238 35.4575L56.0669 36.1857L78.7155 29.0306L70.5591 28.3023L47.9238 35.4575Z" fill="white"/>
<path d="M70.5185 28.3443L54.0595 23.1367L31.4299 30.2917M70.5185 28.3443L47.8969 35.4996M70.5185 28.3443V39.517L47.8969 46.6721M31.4299 30.2917L47.8969 35.4996M31.4299 30.2917V41.4647L47.8969 46.6721M47.8969 35.4996L47.8969 46.6721M54.1055 23.1664V33.8271M31.4435 30.3128L25 25.9523L47.6359 18.7759L54.0603 23.1537L31.445 30.3128H31.4435ZM54.0262 23.141L59.0245 16.875L75.4042 22.0614L70.4185 28.3232L54.0262 23.141ZM27.9641 25.8972L31.4101 30.3259L47.7898 35.5076L44.3571 31.0797L27.9641 25.8972ZM47.9238 35.4575L56.0669 36.1857L78.7155 29.0306L70.5591 28.3023L47.9238 35.4575Z" stroke="black" stroke-linecap="round" stroke-linejoin="round"/>
<mask id="path-4-outside-2_6_231" maskUnits="userSpaceOnUse" x="46.2716" y="25.0298" width="6" height="3" fill="black">
<rect fill="white" x="46.2716" y="25.0298" width="6" height="3"/>
<path d="M47.2716 26.0298L51.0709 27.196Z"/>
</mask>
<path d="M47.2716 26.0298L51.0709 27.196Z" fill="#B8B8D9"/>
<path d="M47.4183 25.5518C47.1543 25.4708 46.8747 25.6191 46.7936 25.8831C46.7126 26.147 46.8609 26.4267 47.1249 26.5078L47.4183 25.5518ZM50.9242 27.674C51.1882 27.7551 51.4679 27.6067 51.5489 27.3428C51.6299 27.0788 51.4816 26.7991 51.2176 26.718L50.9242 27.674ZM47.1249 26.5078L50.9242 27.674L51.2176 26.718L47.4183 25.5518L47.1249 26.5078Z" fill="#B8B8D9" mask="url(#path-4-outside-2_6_231)"/>
<mask id="path-6-outside-3_6_231" maskUnits="userSpaceOnUse" x="46.7329" y="24.2279" width="4" height="5" fill="black">
<rect fill="white" x="46.7329" y="24.2279" width="4" height="5"/>
<path d="M50.2192 25.2279L47.7329 27.8322Z"/>
</mask>
<path d="M50.2192 25.2279L47.7329 27.8322Z" fill="#B8B8D9"/>
<path d="M50.5809 25.5732C50.7716 25.3735 50.7642 25.057 50.5645 24.8663C50.3648 24.6756 50.0483 24.6829 49.8576 24.8827L50.5809 25.5732ZM47.3713 27.4869C47.1806 27.6867 47.1879 28.0032 47.3877 28.1938C47.5874 28.3845 47.9039 28.3772 48.0946 28.1775L47.3713 27.4869ZM49.8576 24.8827L47.3713 27.4869L48.0946 28.1775L50.5809 25.5732L49.8576 24.8827Z" fill="#B8B8D9" mask="url(#path-6-outside-3_6_231)"/>
<mask id="path-8-outside-4_6_231" maskUnits="userSpaceOnUse" x="47.6812" y="24.9634" width="3" height="3" fill="black">
<rect fill="white" x="47.6812" y="24.9634" width="3" height="3"/>
<path d="M48.6812 25.9634L49.2399 27.2423Z"/>
</mask>
<path d="M48.6812 25.9634L49.2399 27.2423Z" fill="#B8B8D9"/>
<path d="M49.1394 25.7632C49.0288 25.5102 48.7341 25.3946 48.481 25.5052C48.228 25.6157 48.1124 25.9105 48.223 26.1635L49.1394 25.7632ZM48.7817 27.4425C48.8923 27.6955 49.187 27.811 49.4401 27.7005C49.6931 27.5899 49.8086 27.2952 49.6981 27.0421L48.7817 27.4425ZM48.223 26.1635L48.7817 27.4425L49.6981 27.0421L49.1394 25.7632L48.223 26.1635Z" fill="#B8B8D9" mask="url(#path-8-outside-4_6_231)"/>
<mask id="path-10-outside-5_6_231" maskUnits="userSpaceOnUse" x="46.9287" y="25.308" width="4" height="2" fill="black">
<rect fill="white" x="46.9287" y="25.308" width="4" height="2"/>
<path d="M50.3312 26.308L47.9287 26.6791Z"/>
</mask>
<path d="M50.3312 26.308L47.9287 26.6791Z" fill="#B8B8D9"/>
<path d="M50.4075 26.8022C50.6804 26.76 50.8675 26.5046 50.8253 26.2317C50.7832 25.9588 50.5278 25.7718 50.2549 25.8139L50.4075 26.8022ZM47.8524 26.185C47.5795 26.2271 47.3924 26.4825 47.4346 26.7554C47.4767 27.0283 47.7321 27.2154 48.005 27.1733L47.8524 26.185ZM50.2549 25.8139L47.8524 26.185L48.005 27.1733L50.4075 26.8022L50.2549 25.8139Z" fill="#B8B8D9" mask="url(#path-10-outside-5_6_231)"/>
<path d="M47.644 26.6259C47.6689 26.6176 47.6992 26.6128 47.7319 26.6128C47.7646 26.6128 47.7949 26.6176 47.8198 26.6259C47.8095 26.5907 47.7917 26.5643 47.7769 26.5477C47.7575 26.5259 47.7393 26.5158 47.7319 26.5121C47.7319 26.5121 47.7319 26.5121 47.7319 26.5121M47.644 26.6259L47.7319 26.5121M47.644 26.6259C47.6542 26.5907 47.672 26.5643 47.6868 26.5477C47.7062 26.5259 47.7244 26.5158 47.7319 26.5121M47.644 26.6259L47.7319 26.5121M47.8198 26.7455C47.7949 26.7537 47.7646 26.7586 47.7319 26.7586C47.6992 26.7586 47.6689 26.7537 47.644 26.7455C47.6542 26.7807 47.672 26.8071 47.6868 26.8237C47.7062 26.8455 47.7244 26.8556 47.7319 26.8593C47.7319 26.8593 47.7319 26.8593 47.7319 26.8593M47.8198 26.7455L47.7319 26.8593M47.8198 26.7455C47.8095 26.7807 47.7917 26.8071 47.7769 26.8237C47.7575 26.8455 47.7393 26.8556 47.7319 26.8593M47.8198 26.7455L47.7319 26.8593M47.7319 27.0086C47.8029 27.0086 47.8795 26.9954 47.9477 26.9631C47.9969 26.9398 48.1355 26.8585 48.1355 26.6857C48.1355 26.5129 47.9969 26.4316 47.9477 26.4083C47.8795 26.3759 47.8029 26.3628 47.7319 26.3628C47.6608 26.3628 47.5842 26.3759 47.5161 26.4083C47.4668 26.4316 47.3282 26.5129 47.3282 26.6857C47.3282 26.8585 47.4669 26.9398 47.5161 26.9631C47.5842 26.9954 47.6608 27.0086 47.7319 27.0086Z" fill="#B8B8D9" stroke="#B8B8D9" stroke-width="0.5" stroke-linecap="round" stroke-linejoin="round"/>
<path d="M51.136 27.1958C51.1609 27.1875 51.1912 27.1827 51.2239 27.1827C51.2566 27.1827 51.2869 27.1875 51.3118 27.1958C51.3015 27.1606 51.2837 27.1342 51.2689 27.1176C51.2495 27.0958 51.2313 27.0856 51.2239 27.082C51.2239 27.082 51.2239 27.082 51.2239 27.082M51.136 27.1958L51.2239 27.082M51.136 27.1958C51.1462 27.1606 51.1641 27.1342 51.1788 27.1176C51.1982 27.0958 51.2164 27.0856 51.2239 27.082M51.136 27.1958L51.2239 27.082M51.3118 27.3154C51.2869 27.3236 51.2566 27.3285 51.2239 27.3285C51.1912 27.3285 51.1609 27.3236 51.136 27.3154C51.1462 27.3506 51.1641 27.377 51.1788 27.3936C51.1982 27.4153 51.2164 27.4255 51.2239 27.4292C51.2239 27.4292 51.2239 27.4292 51.2239 27.4292M51.3118 27.3154L51.2239 27.4292M51.3118 27.3154C51.3015 27.3506 51.2837 27.377 51.2689 27.3936C51.2495 27.4153 51.2313 27.4255 51.2239 27.4292M51.3118 27.3154L51.2239 27.4292M51.2239 27.5785C51.2949 27.5785 51.3715 27.5653 51.4397 27.533C51.4889 27.5096 51.6275 27.4283 51.6275 27.2556C51.6275 27.0828 51.4889 27.0015 51.4397 26.9782C51.3715 26.9458 51.2949 26.9327 51.2239 26.9327C51.1528 26.9327 51.0762 26.9458 51.0081 26.9782C50.9589 27.0015 50.8202 27.0828 50.8202 27.2556C50.8202 27.4284 50.9589 27.5096 51.0081 27.533C51.0762 27.5653 51.1528 27.5785 51.2239 27.5785Z" fill="#B8B8D9" stroke="#B8B8D9" stroke-width="0.5" stroke-linecap="round" stroke-linejoin="round"/>
<mask id="path-14-outside-6_6_231" maskUnits="userSpaceOnUse" x="46.5093" y="17.6078" width="6" height="3" fill="black">
<rect fill="white" x="46.5093" y="17.6078" width="6" height="3"/>
<path d="M47.5093 18.6078L51.3086 19.7741Z"/>
</mask>
<path d="M47.5093 18.6078L51.3086 19.7741Z" fill="#B8B8D9"/>
<path d="M47.656 18.1298C47.392 18.0488 47.1123 18.1971 47.0313 18.4611C46.9503 18.7251 47.0986 19.0048 47.3626 19.0858L47.656 18.1298ZM51.1619 20.2521C51.4258 20.3331 51.7055 20.1848 51.7866 19.9208C51.8676 19.6568 51.7193 19.3771 51.4553 19.2961L51.1619 20.2521ZM47.3626 19.0858L51.1619 20.2521L51.4553 19.2961L47.656 18.1298L47.3626 19.0858Z" fill="#B8B8D9" mask="url(#path-14-outside-6_6_231)"/>
<mask id="path-16-outside-7_6_231" maskUnits="userSpaceOnUse" x="46.9706" y="16.806" width="4" height="5" fill="black">
<rect fill="white" x="46.9706" y="16.806" width="4" height="5"/>
<path d="M50.4569 17.806L47.9706 20.4102Z"/>
</mask>
<path d="M50.4569 17.806L47.9706 20.4102Z" fill="#B8B8D9"/>
<path d="M50.8185 18.1512C51.0092 17.9515 51.0019 17.635 50.8022 17.4443C50.6024 17.2536 50.2859 17.261 50.0952 17.4607L50.8185 18.1512ZM47.609 20.065C47.4183 20.2647 47.4256 20.5812 47.6253 20.7719C47.8251 20.9626 48.1416 20.9552 48.3323 20.7555L47.609 20.065ZM50.0952 17.4607L47.609 20.065L48.3323 20.7555L50.8185 18.1512L50.0952 17.4607Z" fill="#B8B8D9" mask="url(#path-16-outside-7_6_231)"/>
<mask id="path-18-outside-8_6_231" maskUnits="userSpaceOnUse" x="47.9189" y="17.5414" width="3" height="3" fill="black">
<rect fill="white" x="47.9189" y="17.5414" width="3" height="3"/>
<path d="M48.9189 18.5414L49.4776 19.8203Z"/>
</mask>
<path d="M48.9189 18.5414L49.4776 19.8203Z" fill="#B8B8D9"/>
<path d="M49.377 18.3412C49.2665 18.0882 48.9717 17.9727 48.7187 18.0832C48.4656 18.1938 48.3501 18.4885 48.4607 18.7416L49.377 18.3412ZM49.0194 20.0205C49.13 20.2735 49.4247 20.3891 49.6778 20.2785C49.9308 20.168 50.0463 19.8732 49.9358 19.6202L49.0194 20.0205ZM48.4607 18.7416L49.0194 20.0205L49.9358 19.6202L49.377 18.3412L48.4607 18.7416Z" fill="#B8B8D9" mask="url(#path-18-outside-8_6_231)"/>
<mask id="path-20-outside-9_6_231" maskUnits="userSpaceOnUse" x="47.1664" y="17.8861" width="4" height="2" fill="black">
<rect fill="white" x="47.1664" y="17.8861" width="4" height="2"/>
<path d="M50.5689 18.8861L48.1664 19.2572Z"/>
</mask>
<path d="M50.5689 18.8861L48.1664 19.2572Z" fill="#B8B8D9"/>
<path d="M50.6452 19.3802C50.9181 19.3381 51.1052 19.0827 51.063 18.8098C51.0209 18.5368 50.7655 18.3498 50.4926 18.3919L50.6452 19.3802ZM48.0901 18.763C47.8172 18.8052 47.6301 19.0606 47.6722 19.3335C47.7144 19.6064 47.9698 19.7934 48.2427 19.7513L48.0901 18.763ZM50.4926 18.3919L48.0901 18.763L48.2427 19.7513L50.6452 19.3802L50.4926 18.3919Z" fill="#B8B8D9" mask="url(#path-20-outside-9_6_231)"/>
<path d="M47.8816 19.2039C47.9065 19.1957 47.9368 19.1908 47.9695 19.1908C48.0022 19.1908 48.0325 19.1957 48.0574 19.2039C48.0472 19.1687 48.0293 19.1423 48.0146 19.1257C47.9952 19.104 47.977 19.0938 47.9695 19.0901C47.9695 19.0901 47.9695 19.0901 47.9695 19.0901M47.8816 19.2039L47.9695 19.0901M47.8816 19.2039C47.8919 19.1687 47.9097 19.1423 47.9245 19.1257C47.9439 19.104 47.9621 19.0938 47.9695 19.0901M47.8816 19.2039L47.9695 19.0901M48.0574 19.3235C48.0325 19.3318 48.0022 19.3366 47.9695 19.3366C47.9368 19.3366 47.9065 19.3318 47.8816 19.3235C47.8919 19.3587 47.9097 19.3851 47.9245 19.4017C47.9439 19.4235 47.9621 19.4337 47.9695 19.4373C47.9695 19.4373 47.9695 19.4373 47.9695 19.4373M48.0574 19.3235L47.9695 19.4373M48.0574 19.3235C48.0472 19.3587 48.0293 19.3851 48.0146 19.4017C47.9952 19.4235 47.977 19.4337 47.9695 19.4373M48.0574 19.3235L47.9695 19.4373M47.9695 19.5866C48.0406 19.5866 48.1172 19.5735 48.1853 19.5411C48.2345 19.5178 48.3732 19.4365 48.3732 19.2637C48.3732 19.091 48.2345 19.0097 48.1853 18.9863C48.1172 18.954 48.0406 18.9408 47.9695 18.9408C47.8985 18.9408 47.8219 18.954 47.7537 18.9863C47.7045 19.0097 47.5659 19.091 47.5659 19.2637C47.5659 19.4365 47.7045 19.5178 47.7537 19.5411C47.8219 19.5735 47.8985 19.5866 47.9695 19.5866Z" fill="#B8B8D9" stroke="#B8B8D9" stroke-width="0.5" stroke-linecap="round" stroke-linejoin="round"/>
<path d="M51.3736 19.7738C51.3985 19.7656 51.4289 19.7607 51.4615 19.7607C51.4942 19.7607 51.5245 19.7656 51.5494 19.7738C51.5392 19.7386 51.5214 19.7122 51.5066 19.6956C51.4872 19.6739 51.469 19.6637 51.4615 19.66C51.4615 19.66 51.4615 19.66 51.4615 19.66M51.3736 19.7738L51.4615 19.66M51.3736 19.7738C51.3839 19.7386 51.4017 19.7122 51.4165 19.6956C51.4359 19.6738 51.4541 19.6637 51.4615 19.66M51.3736 19.7738L51.4615 19.66M51.5494 19.8934C51.5245 19.9017 51.4942 19.9065 51.4615 19.9065C51.4288 19.9065 51.3985 19.9017 51.3736 19.8934C51.3839 19.9286 51.4017 19.955 51.4165 19.9716C51.4359 19.9934 51.4541 20.0035 51.4615 20.0072C51.4615 20.0072 51.4615 20.0072 51.4615 20.0072M51.5494 19.8934L51.4615 20.0072M51.5494 19.8934C51.5392 19.9286 51.5214 19.955 51.5066 19.9716C51.4872 19.9934 51.469 20.0035 51.4615 20.0072M51.5494 19.8934L51.4615 20.0072M51.4615 20.1565C51.5326 20.1565 51.6092 20.1434 51.6773 20.111C51.7266 20.0877 51.8652 20.0064 51.8652 19.8336C51.8652 19.6608 51.7266 19.5795 51.6773 19.5562C51.6092 19.5239 51.5326 19.5107 51.4615 19.5107C51.3905 19.5107 51.3139 19.5239 51.2457 19.5562C51.1965 19.5795 51.0579 19.6608 51.0579 19.8336C51.0579 20.0064 51.1965 20.0877 51.2457 20.111C51.3139 20.1434 51.3905 20.1565 51.4615 20.1565Z" fill="#B8B8D9" stroke="#B8B8D9" stroke-width="0.5" stroke-linecap="round" stroke-linejoin="round"/>
<path d="M55.0093 13.5985C54.9848 13.5883 54.9618 13.5741 54.9413 13.5563L54.9406 13.5557C54.8467 13.474 54.8272 13.3356 54.8949 13.2311C54.9367 13.1667 55.0037 13.1273 55.0755 13.1188L56.9384 12.7546C57.0052 12.7416 57.0745 12.7563 57.1302 12.7955L56.9864 13C57.1302 12.7955 57.1302 12.7955 57.1303 12.7956L57.1304 12.7957L57.1309 12.796L57.1326 12.7972L57.1385 12.8014L57.1607 12.8173C57.1798 12.8311 57.2075 12.8512 57.2422 12.877C57.3118 12.9285 57.41 13.0029 57.5259 13.0949C57.7569 13.2783 58.0609 13.534 58.3475 13.8204C58.6312 14.1038 58.9112 14.4303 59.0812 14.7558C59.2475 15.0743 59.343 15.4642 59.1172 15.8038C59.1172 15.8038 59.1172 15.8038 59.1172 15.8038L58.909 15.6654C58.6825 16.0062 57.9108 16.181 57.1289 16.3581C56.4355 16.5152 55.7341 16.6741 55.398 16.9522C55.0126 17.2711 55.077 17.6534 55.141 18.0339C55.2037 18.4062 55.2661 18.7767 54.9069 19.0845L55.0093 13.5985ZM55.0093 13.5985C55.0543 13.6172 55.1044 13.6226 55.1533 13.613L55.4744 13.5502M55.4744 13.5502C55.2638 13.4415 55.1196 13.374 55.1058 13.3676L55.5114 13.2883C55.4404 13.2522 55.3792 13.2219 55.3309 13.1983C55.2931 13.1798 55.2632 13.1655 55.2426 13.1557L55.2188 13.1444L55.2124 13.1414L55.2107 13.1406L55.2102 13.1404L55.21 13.1403C55.21 13.1403 55.2099 13.1403 55.1051 13.3662L55.4744 13.5502Z" fill="#FFE600" stroke="black" stroke-width="0.5" stroke-linecap="round" stroke-linejoin="round"/>
<path d="M45.8157 20L45.7148 19.7713L45.7147 19.7713L45.7146 19.7714L45.7138 19.7717L45.7109 19.773L45.6994 19.7781L45.6553 19.7974L45.4966 19.867C45.3644 19.9247 45.1866 20.002 45.0037 20.0804C44.8205 20.1589 44.6332 20.2381 44.4819 20.2997C44.406 20.3306 44.3406 20.3565 44.2897 20.3756C44.2642 20.3852 44.2437 20.3926 44.2281 20.3978C44.2184 20.4011 44.2125 20.4029 44.2098 20.4037C44.1149 20.4241 44.0369 20.4991 44.0171 20.5998C43.9912 20.7315 44.0738 20.8601 44.2043 20.8913L45.8157 20ZM45.8157 20L45.9208 19.7732L45.9209 19.7732L45.9213 19.7734L45.9227 19.774L45.9277 19.7764L45.9464 19.7852C45.9626 19.7928 45.9862 19.804 46.0161 19.8185C46.0758 19.8473 46.1608 19.8891 46.2628 19.9411C46.4665 20.0449 46.7399 20.1906 47.0161 20.3569C47.2905 20.5222 47.5759 20.7128 47.7991 20.9071C47.9106 21.0042 48.013 21.1077 48.0913 21.215C48.1677 21.3197 48.2354 21.4473 48.2475 21.5899C48.2768 21.9336 48.0487 22.2039 47.8137 22.4022C47.5694 22.6083 47.2415 22.7997 46.9283 22.9782C46.8957 22.9968 46.8633 23.0152 46.831 23.0336C46.5436 23.197 46.2705 23.3522 46.0496 23.5124C45.7941 23.6977 45.6684 23.8489 45.6384 23.9683L45.6384 23.9683C45.6103 24.0803 45.634 24.2065 45.7249 24.3683C45.8175 24.5331 45.9628 24.7046 46.1349 24.896C46.1615 24.9255 46.1887 24.9555 46.2163 24.986C46.3605 25.145 46.516 25.3164 46.642 25.4892C46.7918 25.6947 46.9256 25.9351 46.9464 26.2029M45.8157 20L45.9207 19.7731C45.8555 19.743 45.7805 19.7423 45.7148 19.7713L45.8157 20ZM45.8157 20L46.9464 26.2029M46.9464 26.2029C46.9464 26.2029 46.9464 26.2029 46.9464 26.2029L46.6972 26.2223L46.9464 26.2029ZM44.2044 20.8913L44.2044 20.8913L44.2046 20.8914L44.2055 20.8916L44.2097 20.8926L44.2266 20.8967L44.2923 20.9131C44.3493 20.9275 44.4311 20.9486 44.5299 20.9755C44.7278 21.0292 44.9921 21.1052 45.2599 21.1949C45.5295 21.2852 45.7947 21.3867 45.998 21.4902C46.1001 21.5422 46.1787 21.5907 46.2326 21.6337C46.2802 21.6716 46.292 21.6922 46.2927 21.6926C46.3082 21.7424 46.3041 21.7914 46.2651 21.8581C46.2201 21.935 46.1325 22.0259 45.9922 22.1289C45.7111 22.3353 45.2953 22.537 44.836 22.7514C44.7924 22.7718 44.7485 22.7922 44.7043 22.8128C44.2951 23.0032 43.866 23.2029 43.524 23.4147C43.3337 23.5325 43.1582 23.6613 43.0235 23.8038C42.8892 23.9457 42.7796 24.1181 42.755 24.3219L42.755 24.3219C42.7154 24.6501 42.9124 24.9174 43.1215 25.1165C43.3368 25.3215 43.6281 25.5137 43.902 25.6913C43.924 25.7056 43.9459 25.7198 43.9677 25.7339C44.2267 25.9016 44.4694 26.0587 44.66 26.2189C44.8745 26.3994 44.9662 26.5387 44.9801 26.6437L44.9801 26.6437C44.9904 26.7222 44.9522 26.8357 44.8003 27.0067C44.6663 27.1576 44.4849 27.3087 44.2853 27.4749C44.2651 27.4918 44.2447 27.5088 44.2241 27.526C44.0122 27.703 43.7789 27.9019 43.6241 28.1125C43.466 28.3274 43.3516 28.6097 43.4886 28.9166L43.7019 28.8215L43.4886 28.9166C43.5375 29.0263 43.6227 29.1197 43.7086 29.196C43.7976 29.2751 43.905 29.3511 44.0193 29.4226C44.2482 29.5658 44.5256 29.7036 44.7889 29.8225C45.0534 29.942 45.31 30.0452 45.5 30.1184C45.5952 30.155 45.674 30.1842 45.7292 30.2044L45.7935 30.2276L45.8107 30.2337L45.8152 30.2353L45.8165 30.2358L45.8168 30.2359L45.817 30.2359L45.8996 30L45.817 30.236C45.8861 30.2601 45.9623 30.2528 46.0256 30.2159L47.3268 29.4567C47.4169 29.4041 47.4649 29.3011 47.4471 29.1983C47.4294 29.0955 47.3497 29.0145 47.2472 28.9951L44.2044 20.8913Z" fill="#8FCCF0" stroke="black" stroke-width="0.5" stroke-linecap="round" stroke-linejoin="round"/>
<path d="M60.0526 16.7556C59.9673 16.7372 59.8785 16.7647 59.8185 16.8281C59.7585 16.8914 59.7358 16.9816 59.7588 17.0658L60.3043 19.0658C60.3352 19.1793 60.4412 19.2559 60.5587 19.2497L61.7223 19.1881C61.837 19.182 61.9328 19.0986 61.9546 18.9858L62.2455 17.4781C62.2712 17.3446 62.1856 17.215 62.0526 17.1864L60.0526 16.7556Z" fill="#FFE600" stroke="black" stroke-width="0.5" stroke-linecap="round" stroke-linejoin="round"/>
<path d="M61.7659 17.8392C61.7139 17.7773 61.6352 17.7444 61.5546 17.7508C61.474 17.7572 61.4015 17.8022 61.3599 17.8716L60.7855 18.8316C60.7587 18.8764 60.7466 18.9284 60.7508 18.9804L60.8359 20.0204C60.8422 20.0964 60.8827 20.1654 60.9461 20.2078C61.0095 20.2502 61.0888 20.2613 61.1614 20.2381L62.0763 19.9447C62.1798 19.9116 62.25 19.8153 62.25 19.7067V18.5067C62.25 18.4478 62.2293 18.3909 62.1914 18.3459L61.7659 17.8392Z" fill="#8FCCF0" stroke="black" stroke-width="0.5" stroke-linecap="round" stroke-linejoin="round"/>
<path d="M61.9412 16.2488C61.8369 16.274 61.7603 16.363 61.751 16.4699C61.7416 16.5768 61.8015 16.6778 61.8998 16.7208L63.061 17.229C63.1104 17.2506 63.1653 17.2557 63.2177 17.2435L65.0565 16.8173C65.156 16.7943 65.2314 16.713 65.2471 16.6121C65.2627 16.5111 65.2154 16.4108 65.1275 16.3587L64.1598 15.785C64.1037 15.7517 64.0368 15.7417 63.9735 15.757L61.9412 16.2488Z" fill="#F02424" stroke="black" stroke-width="0.5" stroke-linecap="round" stroke-linejoin="round"/>
<path d="M65.2672 19.835C65.2229 19.7846 65.1602 19.7541 65.0932 19.7504C65.0262 19.7467 64.9605 19.7701 64.9109 19.8153L63.8316 20.7994C63.7423 20.8808 63.724 21.0143 63.788 21.1167L64.4229 22.1325C64.4592 22.1906 64.5178 22.2312 64.5849 22.2449C64.652 22.2587 64.7218 22.2442 64.778 22.205L66.143 21.2526C66.2014 21.2119 66.2397 21.1483 66.2482 21.0776C66.2567 21.007 66.2348 20.936 66.1878 20.8826L65.2672 19.835Z" fill="#FFE600" stroke="black" stroke-width="0.5" stroke-linecap="round" stroke-linejoin="round"/>
<path d="M68.1313 20.7533C68.0803 20.7449 68.0279 20.7526 67.9814 20.7752L66.8905 21.3065C66.7975 21.3518 66.7419 21.4499 66.7509 21.553C66.76 21.6562 66.8316 21.7431 66.9312 21.7716L68.5675 22.2403C68.628 22.2577 68.6927 22.2515 68.7489 22.2232L70.1125 21.5357C70.2092 21.487 70.2635 21.3816 70.2471 21.2746C70.2307 21.1675 70.1472 21.0833 70.0404 21.0658L68.1313 20.7533Z" fill="#FF6600" stroke="black" stroke-width="0.5" stroke-linecap="round" stroke-linejoin="round"/>
<path d="M51.4703 14.7535C51.345 14.7323 51.2238 14.8084 51.1885 14.9304L50.7599 16.4087C50.7413 16.4728 50.7491 16.5416 50.7816 16.5999C50.8141 16.6582 50.8685 16.7011 50.9328 16.7191L52.803 17.2408C52.9038 17.2689 53.0115 17.2312 53.0728 17.1463L54.2027 15.5811C54.2533 15.5111 54.2641 15.4199 54.2313 15.34C54.1986 15.26 54.1269 15.2027 54.0417 15.1883L51.4703 14.7535Z" fill="#FF4DB3" stroke="black" stroke-width="0.5" stroke-linecap="round" stroke-linejoin="round"/>
<path d="M48.0806 16.7537C48.038 16.7463 47.9944 16.75 47.9537 16.7645L45.916 17.4918C45.828 17.5233 45.7648 17.6011 45.7523 17.6937C45.7397 17.7863 45.7798 17.8781 45.8563 17.9319L47.6676 19.2046C47.7565 19.2671 47.8757 19.2649 47.9623 19.1992L50.151 17.5401C50.2303 17.48 50.2664 17.3786 50.2429 17.2819C50.2194 17.1852 50.1408 17.1116 50.0428 17.0946L48.0806 16.7537Z" fill="#F02424" stroke="black" stroke-width="0.5" stroke-linecap="round" stroke-linejoin="round"/>
<path d="M43.084 15.7743C43.0176 15.7426 42.9405 15.7419 42.8734 15.7722L40.897 16.6663C40.8064 16.7073 40.7487 16.7981 40.75 16.8976C40.7514 16.997 40.8116 17.0862 40.9033 17.1246L43.5385 18.2305C43.6208 18.2651 43.7153 18.2531 43.7864 18.1992L45.1511 17.1639C45.2206 17.1111 45.2576 17.026 45.2487 16.9392C45.2398 16.8524 45.1863 16.7766 45.1076 16.739L43.084 15.7743Z" fill="#8FCCF0" stroke="black" stroke-width="0.5" stroke-linecap="round" stroke-linejoin="round"/>
<path d="M40.8358 18.9171C40.8111 18.8468 40.7563 18.7912 40.6863 18.7654C40.6164 18.7396 40.5386 18.7464 40.4742 18.7839L38.8742 19.7152C38.8143 19.7501 38.7715 19.8084 38.7562 19.876C38.7409 19.9436 38.7543 20.0146 38.7933 20.0719L39.5205 21.1406C39.5981 21.2546 39.7533 21.2843 39.8674 21.207L41.1402 20.3449C41.2342 20.2812 41.2735 20.1621 41.2358 20.055L40.8358 18.9171Z" fill="#FFE600" stroke="black" stroke-width="0.5" stroke-linecap="round" stroke-linejoin="round"/>
<path d="M42 22.25C42.1381 22.25 42.25 22.1381 42.25 22C42.25 21.8619 42.1381 21.75 42 21.75H41.4576H40.7458H40C39.8619 21.75 39.75 21.8619 39.75 22C39.75 22.1381 39.8619 22.25 40 22.25H40.7458H41.4576H42Z" fill="#FF6600" stroke="black" stroke-width="0.5" stroke-linecap="round" stroke-linejoin="round"/>
<path d="M38.0613 21.757C38.1067 21.746 38.1548 21.7479 38.2001 21.7632L39.262 22.1229C39.3616 22.1566 39.4294 22.249 39.4318 22.354C39.4342 22.4591 39.3706 22.5544 39.2727 22.5926C39.2727 22.5926 39.2727 22.5926 39.2727 22.5926L39.2726 22.5926L39.2715 22.593L39.2669 22.5949L39.2481 22.6024C39.2316 22.6091 39.2077 22.6189 39.1786 22.6313C39.1203 22.656 39.0426 22.6902 38.9637 22.7288C38.8836 22.7679 38.8081 22.8087 38.7513 22.8461C38.7398 22.8536 38.7299 22.8605 38.7214 22.8667C38.7436 22.8998 38.7833 22.9435 38.8465 23.0031C38.8667 23.0221 38.8912 23.0445 38.9176 23.0685C38.969 23.1154 39.0275 23.1687 39.0744 23.2161C39.1476 23.2901 39.2368 23.3912 39.283 23.5141L39.283 23.5141C39.3236 23.6217 39.3173 23.7224 39.3048 23.7965C39.2971 23.8417 39.2814 23.9014 39.2715 23.9389C39.2681 23.9515 39.2655 23.9615 39.264 23.9678C39.2575 23.9949 39.2558 24.0095 39.2554 24.0165C39.2564 24.0175 39.2577 24.0187 39.2593 24.0202C39.2591 24.02 39.2619 24.0224 39.2692 24.0272C39.2767 24.0322 39.287 24.0384 39.3005 24.0458C39.3277 24.0606 39.3628 24.0774 39.4048 24.0955C39.4888 24.1316 39.5898 24.1684 39.6895 24.202C39.7886 24.2353 39.883 24.2643 39.953 24.285C39.9879 24.2954 40.0164 24.3036 40.0361 24.3091L40.0587 24.3155L40.0644 24.3171L40.0657 24.3174L40.066 24.3175L40.066 24.3175L40.066 24.3175L40 24.5586L39.934 24.7998L39.9339 24.7998L39.9338 24.7997L39.9332 24.7996L39.9314 24.7991L39.9246 24.7972L39.8998 24.7902C39.8784 24.7841 39.848 24.7754 39.811 24.7645C39.7666 24.7513 39.7124 24.7349 39.6531 24.7161L38.0613 21.757ZM38.0613 21.757L38.0602 21.7572L38.0478 21.7601C38.0372 21.7626 38.0224 21.7663 38.0037 21.771C37.9666 21.7806 37.9143 21.7947 37.8524 21.8134C37.7295 21.8505 37.5637 21.907 37.4005 21.9838C37.2414 22.0587 37.0642 22.1621 36.9357 22.3011C36.8013 22.4464 36.7018 22.6551 36.7739 22.9035L36.7739 22.9035C36.878 23.2624 37.0737 23.4894 37.2582 23.6684C37.3093 23.7181 37.3563 23.7616 37.3996 23.8016C37.5216 23.9147 37.6136 23.9999 37.6853 24.1172L37.6853 24.1172C37.7097 24.1571 37.7177 24.1901 37.7338 24.2563C37.7397 24.2806 37.7467 24.3093 37.756 24.3445C37.7882 24.4666 37.8434 24.6185 38.0003 24.7551L38.0613 21.757ZM38.8438 22.5092C38.6786 22.5905 38.508 22.6902 38.4739 22.7684L39.1016 22.5965L38.8438 22.5092ZM38.6879 22.8944C38.6872 22.8953 38.6868 22.8958 38.6867 22.8958C38.6867 22.8958 38.6871 22.8953 38.6879 22.8944Z" fill="#8AD100" stroke="black" stroke-width="0.5" stroke-linecap="round" stroke-linejoin="round"/>
<path d="M41.16 25.75C41.0386 25.75 40.9348 25.8372 40.9138 25.9567L40.7538 26.8675C40.7414 26.9379 40.7598 27.0103 40.8043 27.0663C40.8489 27.1223 40.9153 27.1566 40.9867 27.1604L42.6667 27.2496C42.7781 27.2556 42.88 27.1869 42.9164 27.0815L43.2364 26.1529C43.262 26.0784 43.2511 25.9963 43.2069 25.9311C43.1627 25.8659 43.0904 25.8254 43.0117 25.8217L43 26.0714L43.0117 25.8217L43.0117 25.8217L43.0114 25.8217L43.0106 25.8217L43.0073 25.8215L42.9945 25.8209L42.9456 25.8186L42.7688 25.8105C42.6212 25.8038 42.4209 25.7949 42.2106 25.7859C41.7935 25.7682 41.3267 25.75 41.16 25.75Z" fill="#FF4DB3" stroke="black" stroke-width="0.5" stroke-linecap="round" stroke-linejoin="round"/>
<path d="M49.959 25.1534C49.849 25.1716 49.7644 25.2606 49.7516 25.3714C49.7389 25.4822 49.8011 25.5881 49.9041 25.6309L51.3485 26.2309C51.4018 26.253 51.461 26.256 51.5163 26.2395L53.0718 25.7728C53.1584 25.7468 53.2242 25.6762 53.2439 25.5881C53.2637 25.4999 53.2344 25.4079 53.1672 25.3475L52.5746 24.8142C52.5181 24.7633 52.4415 24.7409 52.3664 24.7534L49.959 25.1534Z" fill="#FFE600" stroke="black" stroke-width="0.5" stroke-linecap="round" stroke-linejoin="round"/>
<path d="M57.7555 20.7571C57.6844 20.7398 57.6092 20.7545 57.5499 20.7975L56.8534 21.3015C56.7795 21.355 56.7406 21.4446 56.7519 21.5351C56.7633 21.6256 56.823 21.7028 56.9078 21.7364L58.1578 22.2324C58.2466 22.2676 58.3477 22.2492 58.4183 22.1848L59.1683 21.5019C59.2367 21.4397 59.2651 21.3448 59.2422 21.2552C59.2194 21.1656 59.1489 21.096 59.0591 21.0742L57.7555 20.7571Z" fill="#8AD100" stroke="black" stroke-width="0.5" stroke-linecap="round" stroke-linejoin="round"/>
<path d="M52.8655 27.8853C52.8155 27.7885 52.7086 27.7352 52.6013 27.7536L50.9579 28.034C50.868 28.0493 50.7936 28.1124 50.7638 28.1986C50.7339 28.2848 50.7534 28.3804 50.8146 28.4481L51.4651 29.1677C51.5258 29.2348 51.6181 29.2639 51.7063 29.2437L53.0558 28.9345C53.1311 28.9173 53.1942 28.8662 53.2268 28.7961C53.2593 28.726 53.2576 28.6448 53.2221 28.5762L52.8655 27.8853Z" fill="#F02424" stroke="black" stroke-width="0.5" stroke-linecap="round" stroke-linejoin="round"/>
<path d="M65.8459 23.1247C65.5609 23.0086 65.054 22.9165 64.5902 22.8535C64.1197 22.7895 63.6499 22.75 63.4212 22.75C63.3617 22.75 63.3048 22.7712 63.2601 22.8088L65.7516 23.3563M65.8459 23.1247L65.7516 23.3563M65.8459 23.1247C65.8459 23.1247 65.8459 23.1247 65.8459 23.1247L65.7516 23.3563M65.8459 23.1247C66.0191 23.1953 66.1673 23.3035 66.2258 23.4722C66.285 23.643 66.225 23.7959 66.1678 23.8907C66.1094 23.9874 66.0305 24.0647 65.9748 24.1134C65.9456 24.1389 65.9193 24.1595 65.9001 24.1739C65.8904 24.1812 65.8823 24.187 65.8762 24.1913L65.8688 24.1965L65.8663 24.1982L65.8654 24.1988L65.865 24.199L65.8648 24.1991C65.8648 24.1992 65.8647 24.1992 65.7256 23.9915C65.7256 23.9915 66.3253 23.59 65.7516 23.3563" fill="#8FCCF0" stroke="black" stroke-width="0.5" stroke-linecap="round" stroke-linejoin="round"/>
<path d="M60.872 24.75C60.8281 24.75 60.785 24.7615 60.747 24.7835L60.872 25L60.7469 24.7835L60.7468 24.7836L60.7466 24.7837L60.7459 24.7841L60.7435 24.7855L60.7352 24.7904L60.7057 24.8081C60.6807 24.8232 60.6454 24.8451 60.6031 24.8724C60.519 24.9267 60.4055 25.0038 60.2902 25.0939C60.1762 25.183 60.0533 25.2902 59.9551 25.4056C59.8637 25.5131 59.761 25.6648 59.7509 25.8401C59.7394 26.0403 59.837 26.2274 59.9351 26.3687C60.0387 26.518 60.1746 26.6606 60.3032 26.781C60.4332 26.9026 60.5629 27.0082 60.6596 27.083C60.7081 27.1205 60.7488 27.1507 60.7776 27.1716L60.8115 27.196L60.8209 27.2027L60.8236 27.2046L60.8244 27.2051L60.8246 27.2053L60.8247 27.2054L60.9673 27L60.8248 27.2054C60.931 27.2791 61.0759 27.2597 61.1589 27.1606L62.1916 25.9284C62.2787 25.8245 62.2671 25.6701 62.1654 25.5804L62 25.7679L62.1654 25.5804L62.1653 25.5803L62.1652 25.5802L62.1646 25.5797L62.1625 25.5778L62.1547 25.571L62.1256 25.5457C62.1006 25.5241 62.0647 25.4934 62.0209 25.4565C61.9336 25.3831 61.8138 25.2846 61.6851 25.1857C61.5573 25.0875 61.4163 24.9854 61.2874 24.9066C61.2231 24.8674 61.157 24.8309 61.0939 24.8036C61.0366 24.7788 60.9565 24.75 60.872 24.75Z" fill="#8AD100" stroke="black" stroke-width="0.5" stroke-linecap="round" stroke-linejoin="round"/>
<path d="M58.082 27.75C58.0379 27.75 57.9945 27.7617 57.9563 27.7839L56.8743 28.4132C56.7836 28.4659 56.7355 28.5698 56.7539 28.6731C56.7723 28.7765 56.8533 28.8573 56.9567 28.8755L59.0644 29.2462C59.1293 29.2576 59.1962 29.2429 59.2503 29.2053L60.1426 28.5853C60.223 28.5295 60.2634 28.4319 60.246 28.3357C60.2287 28.2394 60.1567 28.1621 60.062 28.1378L60 28.38L60.0619 28.1378L60.0619 28.1378L60.0616 28.1377L60.0607 28.1375L60.0574 28.1367L60.0446 28.1334L59.9961 28.1212C59.9542 28.1107 59.894 28.0957 59.8204 28.0778C59.6733 28.0419 59.4724 27.994 59.2576 27.946C59.0432 27.8981 58.8131 27.8498 58.6079 27.8133C58.4086 27.7778 58.2148 27.75 58.082 27.75Z" fill="#8FCCF0" stroke="black" stroke-width="0.5" stroke-linecap="round" stroke-linejoin="round"/>
<path d="M59.8467 20.152C59.8382 20.0173 59.9381 19.9003 60.0724 19.8874L60.0969 19.8851C60.1117 19.8837 60.1266 19.8836 60.1414 19.8848L61.9431 19.8303C62.0767 19.8262 62.1899 19.9279 62.2 20.0612L61.9507 20.0801C62.2 20.0612 62.2 20.0613 62.2 20.0614L62.2 20.0617L62.2001 20.0625L62.2002 20.0649L62.2008 20.0734L62.2026 20.1039C62.204 20.1302 62.2057 20.168 62.207 20.216C62.2097 20.3121 62.2109 20.4492 62.2053 20.6167C62.1942 20.9508 62.1559 21.4091 62.0463 21.9031C61.8292 22.8826 61.3189 24.0562 60.1255 24.6297C59.8812 24.7471 59.581 24.8565 59.2508 24.9499C59.1898 25.1186 59.1148 25.2471 59.0317 25.3651C58.9904 25.4236 58.9462 25.4808 58.9041 25.5353C58.8955 25.5463 58.8871 25.5573 58.8787 25.5681C58.8279 25.6341 58.7774 25.7011 58.7255 25.7787L58.7255 25.7788C58.5838 25.9909 58.3617 26.1686 58.1325 26.322C57.9375 26.4526 57.7174 26.5781 57.5074 26.6979C57.4682 26.7203 57.4293 26.7424 57.391 26.7644C57.1414 26.9076 56.9149 27.0429 56.7379 27.1821C56.5614 27.3208 56.4657 27.4397 56.4307 27.5414C56.4312 27.5467 56.4335 27.5663 56.4491 27.6049C56.4724 27.6623 56.5125 27.7305 56.5617 27.8008C56.6098 27.8696 56.661 27.9326 56.7008 27.9789C56.7205 28.0018 56.737 28.0202 56.7484 28.0326L56.7611 28.0464L56.7641 28.0495L56.7645 28.0499C56.7645 28.0499 56.7645 28.0499 56.7645 28.05M59.8467 20.152L56.2949 28.2733C56.3043 28.2845 56.3132 28.295 56.3217 28.3049C56.3452 28.3322 56.3652 28.3545 56.3795 28.3701L56.3966 28.3886L56.4016 28.3939L56.4031 28.3954L56.4036 28.3959L56.4037 28.3961L56.4038 28.3962L56.5842 28.2231L56.7645 28.05M59.8467 20.152C59.8543 20.2743 59.9489 20.371 60.0673 20.3847M59.8467 20.152L60.0673 20.3847M56.7645 28.05C56.8285 28.1166 56.8505 28.2132 56.8217 28.301C56.7929 28.3888 56.718 28.4536 56.6269 28.4694L55.0091 28.7502C54.9246 28.7649 54.8384 28.7352 54.7809 28.6715L54.9664 28.5039M56.7645 28.05L57.5287 25.2421M60.0673 20.3847C60.0687 20.399 60.0702 20.4141 60.0716 20.4298C60.0859 20.5817 60.102 20.7917 60.1095 21.0239C60.125 21.5015 60.1018 22.0273 59.9803 22.3509C59.9436 22.4487 59.9119 22.5442 59.881 22.6369C59.7566 23.0107 59.647 23.34 59.2911 23.5898C59.281 23.5788 59.2703 23.5679 59.259 23.5572C59.1971 23.4984 59.111 23.4433 59.0267 23.3893C59.0076 23.377 58.9886 23.3648 58.97 23.3527C58.6175 23.1226 58.0154 22.948 57.4184 22.8677C56.8226 22.7875 56.1647 22.792 55.7034 22.9737L60.0673 20.3847ZM57.859 24.0467C57.8201 24.0175 57.7698 23.9877 57.7048 23.9584L57.859 24.0467ZM57.859 24.0467C57.4446 24.0997 57.0548 24.091 56.7826 23.999L56.7826 23.999C56.7584 23.9909 56.7415 23.982 56.7297 23.974C56.8152 23.9349 56.9842 23.8996 57.1904 23.8931C57.4132 23.8861 57.6083 23.915 57.7048 23.9584L57.859 24.0467ZM57.5287 25.2421C57.4099 25.3865 57.2107 25.5319 56.9418 25.6825C56.6756 25.8315 56.368 25.9716 56.0492 26.1168C56.017 26.1314 55.9847 26.1461 55.9524 26.1609C55.6056 26.3191 55.2488 26.4852 54.9536 26.6685C54.6647 26.8479 54.3937 27.0681 54.2651 27.3526L54.2651 27.3526C54.1875 27.5242 54.2182 27.7069 54.2623 27.8436C54.3084 27.9866 54.3847 28.1268 54.4591 28.2444C54.5346 28.3638 54.6145 28.4698 54.6749 28.5453C54.7053 28.5833 54.7312 28.6142 54.7497 28.6358L54.7718 28.6612L54.7781 28.6683L54.7799 28.6704L54.7805 28.6711L54.7807 28.6713L54.7808 28.6714C54.7808 28.6714 54.7809 28.6715 54.9664 28.5039M57.5287 25.2421C56.9441 25.2755 56.3667 25.2342 55.9082 25.0703L55.9082 25.0703C55.3873 24.884 55.0334 24.5008 54.9722 24.0628C54.908 23.6038 55.1769 23.1812 55.7034 22.9737L57.5287 25.2421ZM54.9664 28.5039C54.9664 28.5039 54.335 27.805 54.4929 27.4556C54.6952 27.0079 55.4227 26.6767 56.154 26.3437C56.8201 26.0405 57.4893 25.7358 57.7679 25.3404L54.9664 28.5039Z" fill="#FF4DB3" stroke="black" stroke-width="0.5" stroke-linecap="round" stroke-linejoin="round"/>
<path d="M58.1097 24.2331L57.9795 24.262L57.931 24.3863L57.8847 24.5049L57.8813 24.5137L57.8785 24.5226L57.8456 24.6302L57.7309 25.0045L58.1187 24.9511L58.4975 24.899L58.5152 24.8966L58.5324 24.8916L59.2274 24.6921L59.3452 24.6583L59.3906 24.5444L59.5084 24.2489L59.709 23.7458L59.196 23.9195L58.5745 24.13L58.1097 24.2331Z" fill="#FF4DB3" stroke="#FF4DB3" stroke-width="0.5"/>
<path d="M54.5591 26.137L54.946 26.7277L55.017 26.0251L55.0673 25.5263L55.9793 25.6019L56.0973 25.1224L55.4991 24.8699L55.8912 24.5453L55.6569 24.1142L54.7847 24.3879L54.4409 23.863L54.054 23.2723L53.983 23.9749L53.9327 24.4737L53.0207 24.3981L52.9027 24.8776L53.5009 25.1301L53.1088 25.4547L53.3431 25.8858L54.2153 25.6121L54.5591 26.137Z" fill="#B8B8D9" stroke="#B8B8D9" stroke-width="0.5"/>
<path d="M63 22.25H63.2682H63.9776H64.1567H64.2318H64.3208H64.6792H64.7682H64.8433H65.0224H65.7318H66V22V21.75H65.7318H65.0224H64.8433H64.7682H64.6792H64.3208H64.2318H64.1567H63.9776H63.2682H63V22V22.25Z" fill="#B8B8D9" stroke="#B8B8D9" stroke-width="0.5"/>
<path d="M57.6165 20.1987L57.9342 20.4412L58.0133 20.0495L58.0461 19.887L58.9896 19.9261L59.0516 19.4318L58.8205 19.383L58.693 18.9294L57.7459 19.078L57.3835 18.8013L57.0658 18.5588L56.9867 18.9505L56.9539 19.113L56.0104 19.0739L55.9484 19.5682L56.1795 19.617L56.307 20.0706L57.2541 19.922L57.6165 20.1987Z" fill="#B8B8D9" stroke="#B8B8D9" stroke-width="0.5"/>
<path d="M42.5591 22.137L42.946 22.7277L43.017 22.0251L43.0673 21.5263L43.9793 21.6019L44.0973 21.1224L43.4991 20.8699L43.8912 20.5453L43.6569 20.1142L42.7847 20.3879L42.4409 19.863L42.054 19.2723L41.983 19.9749L41.9327 20.4737L41.0207 20.3981L40.9027 20.8776L41.5009 21.1301L41.1088 21.4547L41.3431 21.8858L42.2153 21.6121L42.5591 22.137Z" fill="#B8B8D9" stroke="#B8B8D9" stroke-width="0.5"/>
<path d="M48.6165 23.1987L48.9342 23.4412L49.0133 23.0495L49.0461 22.887L49.9896 22.9261L50.0516 22.4318L49.8205 22.383L49.693 21.9294L48.7459 22.078L48.3835 21.8013L48.0658 21.5588L47.9867 21.9505L47.9539 22.113L47.0104 22.0739L46.9484 22.5682L47.1795 22.617L47.307 23.0706L48.2541 22.922L48.6165 23.1987Z" fill="#B8B8D9" stroke="#B8B8D9" stroke-width="0.5"/>
<defs>
<filter id="filter0_d_6_231" x="76.44" y="22.76" width="99.3393" height="26.672" filterUnits="userSpaceOnUse" color-interpolation-filters="sRGB">
<feFlood flood-opacity="0" result="BackgroundImageFix"/>
<feColorMatrix in="SourceAlpha" type="matrix" values="0 0 0 0 0 0 0 0 0 0 0 0 0 0 0 0 0 0 127 0" result="hardAlpha"/>
<feOffset dy="4"/>
<feGaussianBlur stdDeviation="2"/>
<feComposite in2="hardAlpha" operator="out"/>
<feColorMatrix type="matrix" values="0 0 0 0 0 0 0 0 0 0 0 0 0 0 0 0 0 0 0.25 0"/>
<feBlend mode="normal" in2="BackgroundImageFix" result="effect1_dropShadow_6_231"/>
<feBlend mode="normal" in="SourceGraphic" in2="effect1_dropShadow_6_231" result="shape"/>
</filter>
</defs>
</svg>